{
	"asset":{
		"generator":"Khronos glTF Blender I/O v4.1.63",
		"version":"2.0"
	},
	"scene":0,
	"scenes":[
		{
			"name":"Scene",
			"nodes":[
				0
			]
		}
	],
	"nodes":[
		{
			"mesh":0,
			"name":"2205006900-20210110001_4",
			"rotation":[
				0,
				0.7071068286895752,
				0,
				0.7071068286895752
			],
			"translation":[
				0,
				-0.0016570000443607569,
				0.05040799826383591
			]
		}
	],
	"materials":[
		{
			"doubleSided":true,
			"name":"mat_1",
			"pbrMetallicRoughness":{
				"baseColorFactor":[
					0.10000000149011612,
					0.10000000149011612,
					0.10000000149011612,
					1
				],
				"metallicFactor":0.5,
				"roughnessFactor":0.5
			}
		}
	],
	"meshes":[
		{
			"name":"2205006900-20210110001_4",
			"primitives":[
				{
					"attributes":{
						"POSITION":0,
						"NORMAL":1
					},
					"indices":2,
					"material":0
				}
			]
		}
	],
	"accessors":[
		{
			"bufferView":0,
			"componentType":5126,
			"count":3924,
			"max":[
				0.09835413098335266,
				0.011637833900749683,
				0.008227679878473282
			],
			"min":[
				-0.1345692276954651,
				-0.012344361282885075,
				-0.00977232400327921
			],
			"type":"VEC3"
		},
		{
			"bufferView":1,
			"componentType":5126,
			"count":3924,
			"type":"VEC3"
		},
		{
			"bufferView":2,
			"componentType":5123,
			"count":13404,
			"type":"SCALAR"
		}
	],
	"bufferViews":[
		{
			"buffer":0,
			"byteLength":47088,
			"byteOffset":0,
			"target":34962
		},
		{
			"buffer":0,
			"byteLength":47088,
			"byteOffset":47088,
			"target":34962
		},
		{
			"buffer":0,
			"byteLength":26808,
			"byteOffset":94176,
			"target":34963
		}
	],
	"buffers":[
		{
			"byteLength":120984,
			"uri":"Dobot_mg400_j3_2.bin"
		}
	]
}
