{
	"asset":{
		"generator":"Khronos glTF Blender I/O v4.1.63",
		"version":"2.0"
	},
	"scene":0,
	"scenes":[
		{
			"name":"Scene",
			"nodes":[
				0
			]
		}
	],
	"nodes":[
		{
			"mesh":0,
			"name":"2205007000-20210110001_5",
			"rotation":[
				0,
				0.7071068286895752,
				0,
				0.7071068286895752
			]
		}
	],
	"materials":[
		{
			"doubleSided":true,
			"name":"mat_0",
			"pbrMetallicRoughness":{
				"baseColorFactor":[
					0.8999999761581421,
					0.8999999761581421,
					0.8999999761581421,
					1
				],
				"metallicFactor":0.5,
				"roughnessFactor":0.5
			}
		}
	],
	"meshes":[
		{
			"name":"2205007000-20210110001_5",
			"primitives":[
				{
					"attributes":{
						"POSITION":0,
						"NORMAL":1
					},
					"indices":2,
					"material":0
				}
			]
		}
	],
	"accessors":[
		{
			"bufferView":0,
			"componentType":5126,
			"count":14567,
			"max":[
				0.010005759075284004,
				0.019499534741044044,
				0.025027509778738022
			],
			"min":[
				-0.1849946826696396,
				-0.021001068875193596,
				-0.024972494691610336
			],
			"type":"VEC3"
		},
		{
			"bufferView":1,
			"componentType":5126,
			"count":14567,
			"type":"VEC3"
		},
		{
			"bufferView":2,
			"componentType":5123,
			"count":45966,
			"type":"SCALAR"
		}
	],
	"bufferViews":[
		{
			"buffer":0,
			"byteLength":174804,
			"byteOffset":0,
			"target":34962
		},
		{
			"buffer":0,
			"byteLength":174804,
			"byteOffset":174804,
			"target":34962
		},
		{
			"buffer":0,
			"byteLength":91932,
			"byteOffset":349608,
			"target":34963
		}
	],
	"buffers":[
		{
			"byteLength":441540,
			"uri":"Dobot_mg400_j3_1.bin"
		}
	]
}
