{
	"asset":{
		"generator":"Khronos glTF Blender I/O v4.1.63",
		"version":"2.0"
	},
	"scene":0,
	"scenes":[
		{
			"name":"Scene",
			"nodes":[
				0,
				2
			]
		}
	],
	"nodes":[
		{
			"name":"DOBOT_MG400"
		},
		{
			"mesh":0,
			"name":"2204132100_1"
		},
		{
			"children":[
				1
			],
			"name":"DOBOT_MG400.001"
		}
	],
	"materials":[
		{
			"doubleSided":true,
			"name":"mat_0.001",
			"pbrMetallicRoughness":{
				"baseColorFactor":[
					0.8999999761581421,
					0.8999999761581421,
					0.8999999761581421,
					1
				],
				"metallicFactor":0.5,
				"roughnessFactor":0.5
			}
		}
	],
	"meshes":[
		{
			"name":"2204132100_1.001",
			"primitives":[
				{
					"attributes":{
						"POSITION":0,
						"NORMAL":1
					},
					"indices":2,
					"material":0
				}
			]
		}
	],
	"accessors":[
		{
			"bufferView":0,
			"componentType":5126,
			"count":4262,
			"max":[
				0.0949999988079071,
				0.11299999803304672,
				0.0949999988079071
			],
			"min":[
				-0.0949999988079071,
				-1.6653344997146072e-18,
				-0.0949999988079071
			],
			"type":"VEC3"
		},
		{
			"bufferView":1,
			"componentType":5126,
			"count":4262,
			"type":"VEC3"
		},
		{
			"bufferView":2,
			"componentType":5123,
			"count":12348,
			"type":"SCALAR"
		}
	],
	"bufferViews":[
		{
			"buffer":0,
			"byteLength":51144,
			"byteOffset":0,
			"target":34962
		},
		{
			"buffer":0,
			"byteLength":51144,
			"byteOffset":51144,
			"target":34962
		},
		{
			"buffer":0,
			"byteLength":24696,
			"byteOffset":102288,
			"target":34963
		}
	],
	"buffers":[
		{
			"byteLength":126984,
			"uri":"Dobot_mg400_base.bin"
		}
	]
}
