{
	"asset":{
		"generator":"Khronos glTF Blender I/O v4.1.63",
		"version":"2.0"
	},
	"scene":0,
	"scenes":[
		{
			"name":"Scene",
			"nodes":[
				0
			]
		}
	],
	"nodes":[
		{
			"mesh":0,
			"name":"J4_MOTOR_1"
		}
	],
	"materials":[
		{
			"doubleSided":true,
			"name":"mat_0",
			"pbrMetallicRoughness":{
				"baseColorFactor":[
					0.8999999761581421,
					0.8999999761581421,
					0.8999999761581421,
					1
				],
				"metallicFactor":0.5,
				"roughnessFactor":0.5
			}
		}
	],
	"meshes":[
		{
			"name":"J4_MOTOR_1",
			"primitives":[
				{
					"attributes":{
						"POSITION":0,
						"NORMAL":1
					},
					"indices":2,
					"material":0
				}
			]
		}
	],
	"accessors":[
		{
			"bufferView":0,
			"componentType":5126,
			"count":15561,
			"max":[
				0.022064147517085075,
				0.010999765247106552,
				0.05906752869486809
			],
			"min":[
				-0.021935854107141495,
				-0.08847123384475708,
				-0.039932981133461
			],
			"type":"VEC3"
		},
		{
			"bufferView":1,
			"componentType":5126,
			"count":15561,
			"type":"VEC3"
		},
		{
			"bufferView":2,
			"componentType":5123,
			"count":54294,
			"type":"SCALAR"
		}
	],
	"bufferViews":[
		{
			"buffer":0,
			"byteLength":186732,
			"byteOffset":0,
			"target":34962
		},
		{
			"buffer":0,
			"byteLength":186732,
			"byteOffset":186732,
			"target":34962
		},
		{
			"buffer":0,
			"byteLength":108588,
			"byteOffset":373464,
			"target":34963
		}
	],
	"buffers":[
		{
			"byteLength":482052,
			"uri":"Dobot_mg400_j4.bin"
		}
	]
}
