{
	"asset":{
		"generator":"Khronos glTF Blender I/O v4.1.63",
		"version":"2.0"
	},
	"scene":0,
	"scenes":[
		{
			"name":"Scene",
			"nodes":[
				1
			]
		}
	],
	"nodes":[
		{
			"mesh":0,
			"name":"2205006400-20210110001_8"
		},
		{
			"children":[
				0
			],
			"name":"DOBOT_MG400"
		}
	],
	"materials":[
		{
			"doubleSided":true,
			"name":"mat_0",
			"pbrMetallicRoughness":{
				"baseColorFactor":[
					0.8999999761581421,
					0.8999999761581421,
					0.8999999761581421,
					1
				],
				"metallicFactor":0.5,
				"roughnessFactor":0.5
			}
		}
	],
	"meshes":[
		{
			"name":"2205006400-20210110001_8",
			"primitives":[
				{
					"attributes":{
						"POSITION":0,
						"NORMAL":1
					},
					"indices":2,
					"material":0
				}
			]
		}
	],
	"accessors":[
		{
			"bufferView":0,
			"componentType":5126,
			"count":12797,
			"max":[
				0.030500000342726707,
				0.18500053882598877,
				0.009999060072004795
			],
			"min":[
				-0.030500000342726707,
				-0.009999982081353664,
				-0.036000143736600876
			],
			"type":"VEC3"
		},
		{
			"bufferView":1,
			"componentType":5126,
			"count":12797,
			"type":"VEC3"
		},
		{
			"bufferView":2,
			"componentType":5123,
			"count":40446,
			"type":"SCALAR"
		}
	],
	"bufferViews":[
		{
			"buffer":0,
			"byteLength":153564,
			"byteOffset":0,
			"target":34962
		},
		{
			"buffer":0,
			"byteLength":153564,
			"byteOffset":153564,
			"target":34962
		},
		{
			"buffer":0,
			"byteLength":80892,
			"byteOffset":307128,
			"target":34963
		}
	],
	"buffers":[
		{
			"byteLength":388020,
			"uri":"Dobot_mg400_j1_1.bin"
		}
	]
}
