{
	"asset":{
		"generator":"Khronos glTF Blender I/O v4.1.63",
		"version":"2.0"
	},
	"scene":0,
	"scenes":[
		{
			"name":"Scene",
			"nodes":[
				1
			]
		}
	],
	"nodes":[
		{
			"mesh":0,
			"name":"2205006300202101160001_10",
			"rotation":[
				0,
				0.7071068286895752,
				0,
				0.7071068286895752
			]
		},
		{
			"children":[
				0
			],
			"name":"DOBOT_MG400"
		}
	],
	"materials":[
		{
			"doubleSided":true,
			"name":"mat_1",
			"pbrMetallicRoughness":{
				"baseColorFactor":[
					0.10000000149011612,
					0.10000000149011612,
					0.10000000149011612,
					1
				],
				"metallicFactor":0.5,
				"roughnessFactor":0.5
			}
		}
	],
	"meshes":[
		{
			"name":"2205006300202101160001_10",
			"primitives":[
				{
					"attributes":{
						"POSITION":0,
						"NORMAL":1
					},
					"indices":2,
					"material":0
				}
			]
		}
	],
	"accessors":[
		{
			"bufferView":0,
			"componentType":5126,
			"count":10791,
			"max":[
				0.01996985450387001,
				0.18500082194805145,
				0.04072512313723564
			],
			"min":[
				-0.020121177658438683,
				-0.022961236536502838,
				-0.035774875432252884
			],
			"type":"VEC3"
		},
		{
			"bufferView":1,
			"componentType":5126,
			"count":10791,
			"type":"VEC3"
		},
		{
			"bufferView":2,
			"componentType":5123,
			"count":34578,
			"type":"SCALAR"
		}
	],
	"bufferViews":[
		{
			"buffer":0,
			"byteLength":129492,
			"byteOffset":0,
			"target":34962
		},
		{
			"buffer":0,
			"byteLength":129492,
			"byteOffset":129492,
			"target":34962
		},
		{
			"buffer":0,
			"byteLength":69156,
			"byteOffset":258984,
			"target":34963
		}
	],
	"buffers":[
		{
			"byteLength":328140,
			"uri":"Dobot_mg400_j1_2.bin"
		}
	]
}
