{
	"asset":{
		"generator":"Khronos glTF Blender I/O v4.1.63",
		"version":"2.0"
	},
	"scene":0,
	"scenes":[
		{
			"name":"Scene",
			"nodes":[
				0,
				2
			]
		}
	],
	"nodes":[
		{
			"name":"2204159600_36",
			"rotation":[
				-0.7071068286895752,
				0,
				0.7071068286895752,
				1.1205661439440788e-15
			],
			"translation":[
				0.0044999998062849045,
				0.40299999713897705,
				-0.0020000000949949026
			]
		},
		{
			"mesh":0,
			"name":"2204159500_22"
		},
		{
			"children":[
				1
			],
			"name":"DOBOT_MG400",
			"translation":[
				-0.0013000000035390258,
				0,
				0
			]
		}
	],
	"materials":[
		{
			"doubleSided":true,
			"name":"mat_0.001",
			"pbrMetallicRoughness":{
				"baseColorFactor":[
					0.8999999761581421,
					0.8999999761581421,
					0.8999999761581421,
					1
				],
				"metallicFactor":0.5,
				"roughnessFactor":0.5
			}
		}
	],
	"meshes":[
		{
			"name":"2204159500_22.001",
			"primitives":[
				{
					"attributes":{
						"POSITION":0,
						"NORMAL":1
					},
					"indices":2,
					"material":0
				}
			]
		}
	],
	"accessors":[
		{
			"bufferView":0,
			"componentType":5126,
			"count":1260,
			"max":[
				0.00453000096604228,
				0.00996510498225689,
				0.009999999776482582
			],
			"min":[
				-0.005970001220703125,
				-0.00996510498225689,
				-0.05199999734759331
			],
			"type":"VEC3"
		},
		{
			"bufferView":1,
			"componentType":5126,
			"count":1260,
			"type":"VEC3"
		},
		{
			"bufferView":2,
			"componentType":5123,
			"count":3522,
			"type":"SCALAR"
		}
	],
	"bufferViews":[
		{
			"buffer":0,
			"byteLength":15120,
			"byteOffset":0,
			"target":34962
		},
		{
			"buffer":0,
			"byteLength":15120,
			"byteOffset":15120,
			"target":34962
		},
		{
			"buffer":0,
			"byteLength":7044,
			"byteOffset":30240,
			"target":34963
		}
	],
	"buffers":[
		{
			"byteLength":37284,
			"uri":"Dobot_mg400_j3_j1.bin"
		}
	]
}
