{
	"asset":{
		"generator":"Khronos glTF Blender I/O v4.1.63",
		"version":"2.0"
	},
	"scene":0,
	"scenes":[
		{
			"name":"Scene",
			"nodes":[
				1,
				2
			]
		}
	],
	"nodes":[
		{
			"mesh":0,
			"name":"2205006600--2021010001_9"
		},
		{
			"children":[
				0
			],
			"name":"DOBOT_MG400"
		},
		{
			"name":"COMPOUND003"
		}
	],
	"materials":[
		{
			"doubleSided":true,
			"name":"mat_0",
			"pbrMetallicRoughness":{
				"baseColorFactor":[
					0.8999999761581421,
					0.8999999761581421,
					0.8999999761581421,
					1
				],
				"metallicFactor":0.5,
				"roughnessFactor":0.5
			}
		}
	],
	"meshes":[
		{
			"name":"2205006600--2021010001_9",
			"primitives":[
				{
					"attributes":{
						"POSITION":0,
						"NORMAL":1
					},
					"indices":2,
					"material":0
				}
			]
		}
	],
	"accessors":[
		{
			"bufferView":0,
			"componentType":5126,
			"count":11396,
			"max":[
				0.02399999462068081,
				0.05497673898935318,
				0.0389074832201004
			],
			"min":[
				-0.024000002071261406,
				-0.009981628507375717,
				-0.048954736441373825
			],
			"type":"VEC3"
		},
		{
			"bufferView":1,
			"componentType":5126,
			"count":11396,
			"type":"VEC3"
		},
		{
			"bufferView":2,
			"componentType":5123,
			"count":40962,
			"type":"SCALAR"
		}
	],
	"bufferViews":[
		{
			"buffer":0,
			"byteLength":136752,
			"byteOffset":0,
			"target":34962
		},
		{
			"buffer":0,
			"byteLength":136752,
			"byteOffset":136752,
			"target":34962
		},
		{
			"buffer":0,
			"byteLength":81924,
			"byteOffset":273504,
			"target":34963
		}
	],
	"buffers":[
		{
			"byteLength":355428,
			"uri":"Dobot_mg400_j2.bin"
		}
	]
}
