{
	"asset":{
		"generator":"Khronos glTF Blender I/O v4.1.63",
		"version":"2.0"
	},
	"scene":0,
	"scenes":[
		{
			"name":"Scene",
			"nodes":[
				0,
				1,
				3
			]
		}
	],
	"nodes":[
		{
			"name":"2204159600_36",
			"rotation":[
				-0.7071068286895752,
				0,
				0.7071068286895752,
				1.1205661439440788e-15
			],
			"translation":[
				0.0044999998062849045,
				0.40299999713897705,
				-0.0020000000949949026
			]
		},
		{
			"name":"DOBOT_MG400",
			"translation":[
				-0.0013000000035390258,
				0,
				0
			]
		},
		{
			"mesh":0,
			"name":"SOLID",
			"translation":[
				-0.00200000056065619,
				0.4029999375343323,
				0.004499999340623617
			]
		},
		{
			"children":[
				2
			],
			"name":"2204159600_36.001",
			"rotation":[
				-0.7071068286895752,
				0,
				0.7071068286895752,
				1.1205661439440788e-15
			],
			"translation":[
				0.0044999998062849045,
				0.40299999713897705,
				-0.0020000000949949026
			]
		}
	],
	"materials":[
		{
			"doubleSided":true,
			"name":"mat_1.002",
			"pbrMetallicRoughness":{
				"baseColorFactor":[
					0.10000000149011612,
					0.10000000149011612,
					0.10000000149011612,
					1
				],
				"metallicFactor":0.5,
				"roughnessFactor":0.5
			}
		}
	],
	"meshes":[
		{
			"name":"SOLID.001",
			"primitives":[
				{
					"attributes":{
						"POSITION":0,
						"NORMAL":1
					},
					"indices":2,
					"material":0
				}
			]
		}
	],
	"accessors":[
		{
			"bufferView":0,
			"componentType":5126,
			"count":1382,
			"max":[
				0.009999977424740791,
				0.008941024541854858,
				0.009000000543892384
			],
			"min":[
				-0.009980989620089531,
				-0.18495620787143707,
				-0.0015000004786998034
			],
			"type":"VEC3"
		},
		{
			"bufferView":1,
			"componentType":5126,
			"count":1382,
			"type":"VEC3"
		},
		{
			"bufferView":2,
			"componentType":5123,
			"count":3960,
			"type":"SCALAR"
		}
	],
	"bufferViews":[
		{
			"buffer":0,
			"byteLength":16584,
			"byteOffset":0,
			"target":34962
		},
		{
			"buffer":0,
			"byteLength":16584,
			"byteOffset":16584,
			"target":34962
		},
		{
			"buffer":0,
			"byteLength":7920,
			"byteOffset":33168,
			"target":34963
		}
	],
	"buffers":[
		{
			"byteLength":41088,
			"uri":"Dobot_mg400_j3_j2.bin"
		}
	]
}
