{
	"asset":{
		"generator":"Khronos glTF Blender I/O v4.1.63",
		"version":"2.0"
	},
	"scene":0,
	"scenes":[
		{
			"name":"Scene",
			"nodes":[
				1
			]
		}
	],
	"nodes":[
		{
			"mesh":0,
			"name":"J2_J3_1",
			"rotation":[
				0,
				0.7071068286895752,
				0,
				0.7071068286895752
			]
		},
		{
			"children":[
				0
			],
			"name":"DOBOT_MG400"
		}
	],
	"materials":[
		{
			"doubleSided":true,
			"name":"mat_1",
			"pbrMetallicRoughness":{
				"baseColorFactor":[
					0.10000000149011612,
					0.10000000149011612,
					0.10000000149011612,
					1
				],
				"metallicFactor":0.5,
				"roughnessFactor":0.5
			}
		}
	],
	"meshes":[
		{
			"name":"J2_J3_1",
			"primitives":[
				{
					"attributes":{
						"POSITION":0,
						"NORMAL":1
					},
					"indices":2,
					"material":0
				}
			]
		}
	],
	"accessors":[
		{
			"bufferView":0,
			"componentType":5126,
			"count":17397,
			"max":[
				0.08100000023841858,
				0.26099997758865356,
				0.07900001108646393
			],
			"min":[
				-0.07899998873472214,
				0.10899998992681503,
				-0.07550003379583359
			],
			"type":"VEC3"
		},
		{
			"bufferView":1,
			"componentType":5126,
			"count":17397,
			"type":"VEC3"
		},
		{
			"bufferView":2,
			"componentType":5123,
			"count":50871,
			"type":"SCALAR"
		}
	],
	"bufferViews":[
		{
			"buffer":0,
			"byteLength":208764,
			"byteOffset":0,
			"target":34962
		},
		{
			"buffer":0,
			"byteLength":208764,
			"byteOffset":208764,
			"target":34962
		},
		{
			"buffer":0,
			"byteLength":101742,
			"byteOffset":417528,
			"target":34963
		}
	],
	"buffers":[
		{
			"byteLength":519272,
			"uri":"Dobot_mg400_j0.bin"
		}
	]
}
